<?xml version="1.0" encoding="UTF-8" standalone="no"?>
<!DOCTYPE svg PUBLIC "-//W3C//DTD SVG 1.1//EN"
 "http://www.w3.org/Graphics/SVG/1.1/DTD/svg11.dtd">
<!-- Generated by graphviz version 2.40.1 (20161225.0304)
 -->
<!-- Title: %0 Pages: 1 -->
<svg width="567pt" height="486pt"
 viewBox="0.00 0.00 566.85 486.00" xmlns="http://www.w3.org/2000/svg" xmlns:xlink="http://www.w3.org/1999/xlink">
<g id="graph0" class="graph" transform="scale(1 1) rotate(0) translate(144 342)">
<title>%0</title>
<polygon fill="#ffffff" stroke="transparent" points="-144,144 -144,-342 422.8458,-342 422.8458,144 -144,144"/>
<!-- articles -->
<g id="node1" class="node">
<title>articles</title>
<polygon fill="#4477c9" stroke="transparent" points="215.8458,0 215.8458,-118 278.8458,-118 278.8458,0 215.8458,0"/>
<polygon fill="#add8e6" stroke="transparent" points="216.3458,-100 216.3458,-118 279.3458,-118 279.3458,-100 216.3458,-100"/>
<polygon fill="none" stroke="#000000" points="216.3458,-100 216.3458,-118 279.3458,-118 279.3458,-100 216.3458,-100"/>
<text text-anchor="start" x="232.6034" y="-106.9" font-family="Times,serif" font-weight="bold" font-style="italic" font-size="9.00" fill="#000000"> articles </text>
<polygon fill="none" stroke="#000000" points="216.3458,-80 216.3458,-100 279.3458,-100 279.3458,-80 216.3458,-80"/>
<text text-anchor="start" x="221.3458" y="-86.9" font-family="Times,serif" font-size="9.00" fill="#000000">title: String</text>
<polygon fill="none" stroke="#000000" points="216.3458,-60 216.3458,-80 279.3458,-80 279.3458,-60 216.3458,-60"/>
<text text-anchor="start" x="221.2234" y="-66.9" font-family="Times,serif" font-size="9.00" fill="#000000">content: String</text>
<polygon fill="none" stroke="#000000" points="216.3458,-40 216.3458,-60 279.3458,-60 279.3458,-40 216.3458,-40"/>
<text text-anchor="start" x="221.2333" y="-46.9" font-family="Times,serif" font-size="9.00" fill="#000000">user: ObjectID</text>
<polygon fill="none" stroke="#000000" points="216.3458,-20 216.3458,-40 279.3458,-40 279.3458,-20 216.3458,-20"/>
<text text-anchor="start" x="221.3458" y="-26.9" font-family="Times,serif" font-size="9.00" fill="#000000">_id: ObjectID</text>
<polygon fill="none" stroke="#000000" points="216.3458,0 216.3458,-20 279.3458,-20 279.3458,0 216.3458,0"/>
<text text-anchor="start" x="221.3458" y="-6.9" font-family="Times,serif" font-size="9.00" fill="#000000">__v: Number</text>
</g>
<!-- users -->
<g id="node2" class="node">
<title>users</title>
<polygon fill="#4477c9" stroke="transparent" points="0,-20 0,-198 70,-198 70,-20 0,-20"/>
<polygon fill="#add8e6" stroke="transparent" points="0,-180 0,-198 70,-198 70,-180 0,-180"/>
<polygon fill="none" stroke="#000000" points="0,-180 0,-198 70,-198 70,-180 0,-180"/>
<text text-anchor="start" x="23.5043" y="-186.9" font-family="Times,serif" font-weight="bold" font-style="italic" font-size="9.00" fill="#000000"> users </text>
<polygon fill="none" stroke="#000000" points="0,-160 0,-180 70,-180 70,-160 0,-160"/>
<text text-anchor="start" x="5" y="-166.9" font-family="Times,serif" font-size="9.00" fill="#000000">name: String</text>
<polygon fill="none" stroke="#000000" points="0,-140 0,-160 70,-160 70,-140 0,-140"/>
<text text-anchor="start" x="4.6295" y="-146.9" font-family="Times,serif" font-size="9.00" fill="#000000">password: String</text>
<polygon fill="none" stroke="#000000" points="0,-120 0,-140 70,-140 70,-120 0,-120"/>
<text text-anchor="start" x="5" y="-126.9" font-family="Times,serif" font-size="9.00" fill="#000000">email: String</text>
<polygon fill="none" stroke="#000000" points="0,-100 0,-120 70,-120 70,-100 0,-100"/>
<text text-anchor="start" x="5" y="-106.9" font-family="Times,serif" font-size="9.00" fill="#000000">date: Date</text>
<polygon fill="none" stroke="#000000" points="0,-80 0,-100 70,-100 70,-80 0,-80"/>
<text text-anchor="start" x="5" y="-86.9" font-family="Times,serif" font-size="9.00" fill="#000000">role: String</text>
<polygon fill="none" stroke="#000000" points="0,-60 0,-80 70,-80 70,-60 0,-60"/>
<text text-anchor="start" x="5" y="-66.9" font-family="Times,serif" font-size="9.00" fill="#000000">age: Number</text>
<polygon fill="none" stroke="#000000" points="0,-40 0,-60 70,-60 70,-40 0,-40"/>
<text text-anchor="start" x="5" y="-46.9" font-family="Times,serif" font-size="9.00" fill="#000000">_id: ObjectID</text>
<polygon fill="none" stroke="#000000" points="0,-20 0,-40 70,-40 70,-20 0,-20"/>
<text text-anchor="start" x="5" y="-26.9" font-family="Times,serif" font-size="9.00" fill="#000000">__v: Number</text>
</g>
<!-- users&#45;&gt;articles -->
<g id="edge1" class="edge">
<title>users:6&#45;&gt;articles:2</title>
<path fill="none" stroke="#000000" stroke-dasharray="5,2" d="M70,-50C135.0426,-50 151.3032,-50 216.3458,-50"/>
<text text-anchor="middle" x="142.9229" y="-55.2" font-family="Times,serif" font-size="14.00" fill="#000000">users&#45;articles</text>
<text text-anchor="middle" x="211.2925" y="-37.4" font-family="Times,serif" font-size="14.00" fill="#000000">N</text>
<text text-anchor="middle" x="73.5" y="-37.4" font-family="Times,serif" font-size="14.00" fill="#000000">1</text>
</g>
</g>
</svg>
